<svg xmlns="http://www.w3.org/2000/svg" viewBox="0 0 64 80" x="0px" y="0px"><path d="M52.12,40.8l-9.51-9.51,2.83-2.83a5,5,0,0,0,0-7.07l-.71-.7,2.12-2.13,5.66,5.66a1,1,0,1,0,1.41-1.41l-5.66-5.66,1.42-1.41a1,1,0,0,0-1.42-1.42l-1.41,1.42-5.66-5.66a1,1,0,0,0-1.41,1.41l5.66,5.66-2.13,2.12-.7-.71a5,5,0,0,0-7.07,0l-2.83,2.83L23.2,11.88a5.55,5.55,0,0,0-8.77,6.64l7.62,13.54-4,3.95-4.9-1.43a1,1,0,0,0-1,.25L8,39.07a1,1,0,0,0,0,1.42l4.76,4.76a5.54,5.54,0,0,0,6,6L23.51,56a1,1,0,0,0,1.42,0l4.24-4.24a1,1,0,0,0,.25-1L28,45.91l4-4,13.53,7.61a5.55,5.55,0,0,0,6.65-8.76ZM41.19,20,44,22.81a3,3,0,0,1,.58,3.4L37.79,19.4A3,3,0,0,1,41.19,20Zm-25-2.43a3.55,3.55,0,0,1,5.6-4.25l9.51,9.51-7.78,7.78Zm-3,19.11,3.28,1L15,39.07a1,1,0,0,0-.22.34l-1.46,3.64-3.27-3.27Zm2.54,11.6A3.52,3.52,0,0,1,15,44.44l1.64-4.1L36.24,20.69l7.07,7.07L23.66,47.41l-4.1,1.64A3.52,3.52,0,0,1,15.74,48.26Zm11.6,2.54-3.12,3.12L21,50.65l3.64-1.46a1,1,0,0,0,.34-.22l1.44-1.45Zm21.34-2.55a3.49,3.49,0,0,1-2.22-.43L33.41,40.49l7.78-7.78,9.51,9.51a3.54,3.54,0,0,1,0,5A3.61,3.61,0,0,1,48.68,48.25Z"/><path d="M39.07,27.76l-2.83-2.83a1,1,0,0,0-1.41,0l-6.37,6.36a1,1,0,0,0,0,1.42l2.83,2.83a1,1,0,0,0,1.42,0l6.36-6.37A1,1,0,0,0,39.07,27.76ZM32,33.41,30.59,32l4.95-4.95L37,28.46Z"/><text x="0" y="79" fill="#000000" font-size="5px" font-weight="bold" font-family="'Helvetica Neue', Helvetica, Arial-Unicode, Arial, Sans-serif">Created by Tri Hartono</text><text x="0" y="84" fill="#000000" font-size="5px" font-weight="bold" font-family="'Helvetica Neue', Helvetica, Arial-Unicode, Arial, Sans-serif">from the Noun Project</text></svg>